<svg xmlns="http://www.w3.org/2000/svg" width="90" height="81" viewBox="0 0 90 81" fill="none"><path d="M-1.6291e-06 58.1976C3.13549e-07 35.9763 27.4119 0.000125422 49.68 0.000127369C71.9481 0.000129316 90 18.0141 90 40.2354C90 62.4568 71.9481 80.4707 49.68 80.4707C27.4119 80.4707 -3.57175e-06 80.4189 -1.6291e-06 58.1976Z" fill="#F7E4E5"></path><g clip-path="url(#clip0_20_420)"><path d="M40.9028 46.9541L46.427 30.3812C46.6316 29.7672 46.2998 29.1035 45.6859 28.8988C45.072 28.6942 44.4082 29.026 44.2035 29.64L38.6793 46.2129C38.4747 46.8269 38.8065 47.4905 39.4205 47.6952C39.5434 47.7362 39.6684 47.7556 39.7912 47.7556C40.2818 47.7557 40.7391 47.4452 40.9028 46.9541V46.9541Z" fill="#C8666C"></path><path d="M49.1823 41.8125C51.1208 41.8125 52.6979 40.2354 52.6979 38.2969C52.6979 36.3584 51.1208 34.7812 49.1823 34.7812C47.2438 34.7812 45.6667 36.3584 45.6667 38.2969C45.6667 40.2354 47.2438 41.8125 49.1823 41.8125ZM49.1823 37.125C49.8285 37.125 50.3542 37.6507 50.3542 38.2969C50.3542 38.943 49.8285 39.4688 49.1823 39.4688C48.5361 39.4688 48.0104 38.943 48.0104 38.2969C48.0104 37.6507 48.5361 37.125 49.1823 37.125Z" fill="#C8666C"></path><path d="M35.9239 34.7812C33.9854 34.7812 32.4083 36.3584 32.4083 38.2969C32.4083 40.2354 33.9854 41.8125 35.9239 41.8125C37.8625 41.8125 39.4396 40.2354 39.4396 38.2969C39.4396 36.3584 37.8625 34.7812 35.9239 34.7812V34.7812ZM35.9239 39.4688C35.2778 39.4688 34.7521 38.943 34.7521 38.2969C34.7521 37.6507 35.2778 37.125 35.9239 37.125C36.5701 37.125 37.0958 37.6507 37.0958 38.2969C37.0958 38.943 36.5702 39.4688 35.9239 39.4688Z" fill="#C8666C"></path><path d="M64.7659 34.5315L60.6794 29.0828L60.8388 27.9669C60.8909 27.6018 60.7682 27.2333 60.5073 26.9726L58.0214 24.4866L60.5073 22.0007C60.9649 21.5431 60.9649 20.8011 60.5073 20.3434C60.0497 19.8858 59.3077 19.8858 58.85 20.3434L56.3641 22.8294L53.8782 20.3434C53.6174 20.0826 53.249 19.9602 52.8838 20.0119L41.2828 21.6692C41.0318 21.7051 40.7992 21.8214 40.6199 22.0007L26.2568 36.3638C24.5814 38.0391 24.5814 40.7652 26.2568 42.4405L38.4101 54.594C38.6587 54.8426 38.9309 55.0534 39.219 55.2282V55.7034C39.219 58.0726 41.1466 60.0002 43.5159 60.0002H60.7034C63.0727 60.0002 65.0002 58.0726 65.0002 55.7034V35.2346C65.0002 34.9811 64.918 34.7343 64.7659 34.5315V34.5315ZM27.9141 40.7833C27.1525 40.0217 27.1525 38.7826 27.9141 38.0211L42.0009 23.9342L52.6351 22.4151L54.7068 24.4867L53.0495 26.144L52.2209 25.3153C51.7633 24.8577 51.0212 24.8577 50.5636 25.3153C50.1059 25.7729 50.1059 26.5149 50.5636 26.9726L53.8782 30.2872C54.107 30.516 54.4069 30.6305 54.7068 30.6305C55.0066 30.6305 55.3066 30.516 55.5354 30.2872C55.993 29.8296 55.993 29.0876 55.5354 28.6299L54.7067 27.8012L56.364 26.144L58.4356 28.2156L56.9164 38.8498L42.8296 52.9367C42.4607 53.3056 41.9702 53.5087 41.4485 53.5087C40.9268 53.5087 40.4363 53.3055 40.0674 52.9367L27.9141 40.7833ZM62.6565 55.7034C62.6565 56.7803 61.7803 57.6565 60.7034 57.6565H43.5159C42.4874 57.6565 41.6427 56.8574 41.5686 55.8476C42.6285 55.8182 43.6797 55.4012 44.4868 54.594L58.8499 40.2308C59.0292 40.0516 59.1455 39.819 59.1814 39.568L60.2105 32.3641L62.6565 35.6252V55.7034Z" fill="#C8666C"></path></g><defs><clipPath id="clip0_20_420"><rect width="40" height="40" fill="white" transform="translate(25 20)"></rect></clipPath></defs></svg>