<svg xmlns="http://www.w3.org/2000/svg" width="90" height="81" viewBox="0 0 90 81" fill="none"><path d="M1.94718e-06 58.1976C3.88983e-06 35.9763 27.4119 0.000124228 49.68 0.000126175C71.9481 0.000128122 90 18.0141 90 40.2354C90 62.4568 71.9481 80.4707 49.68 80.4707C27.4119 80.4707 4.52586e-09 80.4189 1.94718e-06 58.1976Z" fill="#E6F4F7"></path><path d="M50.4688 43.5156H39.5312V45.8594H50.4688V43.5156Z" fill="#81C6D6"></path><path d="M55.5469 45.4688C56.8413 45.4688 57.8906 44.4194 57.8906 43.125C57.8906 41.8306 56.8413 40.7812 55.5469 40.7812C54.2525 40.7812 53.2031 41.8306 53.2031 43.125C53.2031 44.4194 54.2525 45.4688 55.5469 45.4688Z" fill="#81C6D6"></path><path d="M34.4531 45.4688C35.7475 45.4688 36.7969 44.4194 36.7969 43.125C36.7969 41.8306 35.7475 40.7812 34.4531 40.7812C33.1587 40.7812 32.1094 41.8306 32.1094 43.125C32.1094 44.4194 33.1587 45.4688 34.4531 45.4688Z" fill="#81C6D6"></path><path d="M65 36.875C65 34.9365 63.4229 33.3594 61.4844 33.3594H59.1406C58.8347 33.3594 58.5378 33.3988 58.2547 33.4727L55.9821 27.1094H34.0179L31.7453 33.4727C31.4622 33.3988 31.1653 33.3594 30.8594 33.3594H28.5156C26.5771 33.3594 25 34.9365 25 36.875C25 38.4527 26.0448 39.7909 27.4788 40.2345C27.4414 40.413 27.4219 40.5952 27.4219 40.7812V52.8906H34.8438V50.5469H55.1562V52.8906H62.5781V40.7812C62.5781 40.5952 62.5586 40.413 62.5212 40.2345C63.9552 39.7909 65 38.4527 65 36.875ZM35.6696 29.4531H54.3304L56.2617 34.8609C56.0171 35.2095 55.8339 35.604 55.7285 36.0291C52.7034 35.3122 48.9502 34.9219 45 34.9219C41.0498 34.9219 37.2966 35.3122 34.2715 36.0291C34.1661 35.604 33.9829 35.2095 33.7383 34.8609L35.6696 29.4531ZM28.5156 38.0469C27.8695 38.0469 27.3438 37.5212 27.3438 36.875C27.3438 36.2288 27.8695 35.7031 28.5156 35.7031H30.8594C31.4364 35.7031 31.9163 36.1228 32.0125 36.6727C30.8214 37.0795 29.8607 37.5383 29.1316 38.0469H28.5156ZM60.2344 48.2031H29.7656V40.7812C29.7656 40.5069 30.4923 39.5159 33.7209 38.5934C36.718 37.7372 40.7236 37.2656 45 37.2656C49.2764 37.2656 53.282 37.7372 56.2791 38.5934C59.5077 39.5159 60.2344 40.5069 60.2344 40.7812V48.2031ZM61.4844 38.0469H60.8684C60.1393 37.5383 59.1786 37.0795 57.9875 36.6727C58.0837 36.1228 58.5636 35.7031 59.1406 35.7031H61.4844C62.1305 35.7031 62.6562 36.2288 62.6562 36.875C62.6562 37.5212 62.1305 38.0469 61.4844 38.0469Z" fill="#81C6D6"></path></svg>