<svg xmlns="http://www.w3.org/2000/svg" width="90" height="81" viewBox="0 0 90 81" fill="none"><path d="M1.94718e-06 58.1976C3.88983e-06 35.9763 27.4119 0.000124228 49.68 0.000126175C71.9481 0.000128122 90 18.0141 90 40.2354C90 62.4568 71.9481 80.4707 49.68 80.4707C27.4119 80.4707 4.52586e-09 80.4189 1.94718e-06 58.1976Z" fill="#E7F7EC"></path><g clip-path="url(#clip0_20_429)"><path d="M45.0002 20C40.3202 22.548 33.9919 24.6887 28.5953 24.6887H27.4236V25.8605C27.4236 35.7383 29.4606 46.2168 35.9136 53.6348C38.267 56.34 41.6004 58.9762 45 60C48.405 58.9746 51.7256 56.3486 54.0864 53.6348C60.5441 46.2115 62.5765 35.7269 62.5765 25.8605V24.6887H61.4047C56.0627 24.6887 49.7492 22.5857 45.0002 20V20ZM52.4265 51.9715C49.2421 55.6828 46.0191 57.1431 45.0003 57.5367C43.9773 57.1413 40.7561 55.6806 37.5736 51.9715C34.11 47.9347 29.9994 40.3527 29.7766 27.0036C36.609 26.6764 43.0753 23.6411 45.0001 22.661C46.9249 23.6411 53.3912 26.6764 60.2236 27.0036C60.0007 40.3527 55.8901 47.9347 52.4265 51.9715Z" fill="#77CB87"></path><path d="M34.4541 37.6562C34.4541 43.4712 39.185 48.2021 45 48.2021C50.815 48.2021 55.5458 43.4712 55.5458 37.6562C55.5458 31.7981 50.815 27.0322 45 27.0322C39.185 27.0322 34.4541 31.7982 34.4541 37.6562ZM53.2023 37.6562C53.2023 42.179 49.5227 45.8586 45 45.8586C40.4772 45.8586 36.7976 42.179 36.7976 37.6562C36.7976 33.0904 40.4772 29.3758 45 29.3758C49.5227 29.3758 53.2023 33.0904 53.2023 37.6562Z" fill="#77CB87"></path><path d="M41.1416 36.8278L39.4845 38.4849L43.8338 42.8342L50.5212 36.0578L48.8531 34.4116L43.8228 39.509L41.1416 36.8278Z" fill="#77CB87"></path></g><defs><clipPath id="clip0_20_429"><rect width="40" height="40" fill="white" transform="translate(25 20)"></rect></clipPath></defs></svg>