<svg xmlns="http://www.w3.org/2000/svg" width="60" height="60" viewBox="0 0 60 60" fill="none"><g clip-path="url(#clip0_48_2042)"><path d="M60 18.6566L47.4253 14.282L46.7609 13.145C44.737 9.68227 41.8287 6.79676 38.3497 4.80047C34.8709 2.80418 30.9121 1.74902 26.9012 1.74902C18.6792 1.74902 11.0319 6.18059 6.94371 13.3141L6.52441 14.046C2.8759 14.5628 0.0608203 17.7064 0.0608203 21.4954V30.5941H6.52066C7.09277 32.7687 8.70574 34.555 10.8684 35.321C11.0893 37.7707 11.9837 40.1702 13.5518 42.216L11.8907 43.877L6.96727 44.2891L1.44879 49.8076C0.51457 50.742 0 51.984 0 53.3052C0 54.6262 0.51457 55.8683 1.44879 56.8024C2.38301 57.7365 3.62496 58.2511 4.94602 58.2511C6.26719 58.2511 7.50914 57.7365 8.44336 56.8024L13.9618 51.2839L14.374 46.3605L16.0351 44.6994C18.4162 46.5246 21.2768 47.4377 24.1376 47.4377C27.5513 47.4377 30.9648 46.1384 33.5636 43.5396C37.0641 40.0391 38.2066 35.0602 36.992 30.5941H38.726C39.5043 33.5394 42.1909 35.7175 45.3775 35.7175C48.5639 35.7175 51.2505 33.5394 52.0288 30.5941H60V18.6566ZM43.1362 13.9716H28.6664V5.3441C34.5169 5.88141 39.8728 9.06293 43.1362 13.9716ZM25.1544 5.34234V13.9716H10.6641C13.9322 9.05309 19.288 5.87355 25.1544 5.34234ZM6.52137 27.0821H3.57281V24.7201H5.91422V21.208H3.58418C3.73219 19.1297 5.46914 17.4837 7.58461 17.4837H8.60227H25.1544V20.8287C22.2574 20.6089 19.302 21.3292 16.7895 22.99C15.7125 22.3245 14.462 21.9589 13.1727 21.9589C9.98625 21.9588 7.29961 24.1369 6.52137 27.0821ZM13.1727 25.4709C13.4255 25.4709 13.6752 25.5002 13.9178 25.5554C12.4494 27.3062 11.502 29.348 11.0757 31.4749C10.2921 30.8512 9.80543 29.8917 9.80543 28.8382C9.80543 26.9815 11.316 25.4709 13.1727 25.4709ZM10.5693 49.7098L5.95992 54.3191C5.6891 54.5899 5.3291 54.7391 4.94602 54.7391C4.56305 54.7391 4.20305 54.5899 3.93223 54.3191C3.66141 54.0483 3.51223 53.6882 3.51223 53.3053C3.51223 52.9223 3.66141 52.5622 3.93223 52.2914L8.54156 47.6821L10.7545 47.4968L10.5693 49.7098ZM31.0801 41.0563C27.2518 44.8845 21.0232 44.8845 17.1948 41.0563C13.3666 37.2281 13.3666 30.9993 17.1948 27.1711C19.1089 25.257 21.6232 24.3 24.1375 24.3C26.6517 24.3 29.166 25.2571 31.0801 27.1711C34.9083 30.9993 34.9083 37.2281 31.0801 41.0563ZM45.3772 32.2055C43.5205 32.2055 42.0098 30.6949 42.0098 28.8382C42.0098 26.9815 43.5204 25.4709 45.3772 25.4709C47.2338 25.4709 48.7445 26.9815 48.7445 28.8382C48.7445 30.6949 47.2339 32.2055 45.3772 32.2055ZM52.0286 27.0821C51.2503 24.1369 48.5638 21.9588 45.3772 21.9588C42.1907 21.9588 39.5041 24.1369 38.7258 27.0821H35.4639C34.9352 26.2307 34.302 25.4263 33.5634 24.6878C32.1328 23.2571 30.455 22.2212 28.6664 21.5781V17.4837H45.9394L56.4879 21.1534V21.208H53.7953V24.7201H56.4879V27.0821H52.0286Z" fill="#1A3760"></path></g><defs><clipPath id="clip0_48_2042"><rect width="60" height="60" fill="white"></rect></clipPath></defs></svg>