<svg xmlns="http://www.w3.org/2000/svg" width="60" height="60" viewBox="0 0 60 60" fill="none"><path d="M52.8516 60V52.9688H56.3672V35.3906H52.4716L48.956 21.0938H44.9153C45.5008 19.4435 45.8203 17.6688 45.8203 15.8203C45.8203 7.09717 38.7231 0 30 0C21.2769 0 14.1797 7.09717 14.1797 15.8203C14.1797 17.6688 14.4992 19.4435 15.0847 21.0938H11.044L7.52838 35.3906H3.63281V52.9688H7.14844V60H21.2109V52.9688H38.7891V60H52.8516ZM49.3359 56.4844H42.3047V52.9688H49.3359V56.4844ZM42.3047 15.8203C42.3047 22.0084 37.7129 27.1431 31.7578 27.9991V24.3073C33.804 23.5812 35.2734 21.6275 35.2734 19.3359C35.2734 16.4282 32.9077 14.0625 30 14.0625C29.0309 14.0625 28.2422 13.2738 28.2422 12.3047C28.2422 11.3356 29.0309 10.5469 30 10.5469C30.9691 10.5469 31.7578 11.3356 31.7578 12.3047H35.2734C35.2734 10.0131 33.804 8.05939 31.7578 7.33337V3.64151C37.7129 4.49753 42.3047 9.63226 42.3047 15.8203ZM28.2422 3.64151V7.33337C26.196 8.05939 24.7266 10.0131 24.7266 12.3047C24.7266 15.2124 27.0923 17.5781 30 17.5781C30.9691 17.5781 31.7578 18.3669 31.7578 19.3359C31.7578 20.305 30.9691 21.0938 30 21.0938C29.0309 21.0938 28.2422 20.305 28.2422 19.3359H24.7266C24.7266 21.6275 26.196 23.5812 28.2422 24.3073V27.9991C22.2871 27.1431 17.6953 22.0084 17.6953 15.8203C17.6953 9.63226 22.2871 4.49753 28.2422 3.64151ZM16.8521 24.6094C19.6939 28.846 24.5265 31.6406 30 31.6406C35.4735 31.6406 40.3061 28.846 43.1479 24.6094H46.2003L48.8512 35.3906H11.1488L13.7997 24.6094H16.8521ZM7.14844 38.9062H52.8516V49.4531H38.7891V42.4219H21.2109V49.4531H7.14844V38.9062ZM35.2734 49.4531H24.7266V45.9375H35.2734V49.4531ZM17.6953 56.4844H10.6641V52.9688H17.6953V56.4844Z" fill="white"></path><path d="M14.1797 40.6641C12.2411 40.6641 10.6641 42.2411 10.6641 44.1797C10.6641 46.1183 12.2411 47.6953 14.1797 47.6953C16.1183 47.6953 17.6953 46.1183 17.6953 44.1797C17.6953 42.2411 16.1183 40.6641 14.1797 40.6641Z" fill="white"></path><path d="M45.8203 47.6953C47.7589 47.6953 49.3359 46.1183 49.3359 44.1797C49.3359 42.2411 47.7589 40.6641 45.8203 40.6641C43.8817 40.6641 42.3047 42.2411 42.3047 44.1797C42.3047 46.1183 43.8817 47.6953 45.8203 47.6953Z" fill="white"></path></svg>